<svg width="164" height="26" viewBox="0 0 164 26" fill="none" xmlns="http://www.w3.org/2000/svg">
<path d="M10.6561 21.8881V24.7041H0.000117302V0.3841H3.04012V21.8881H10.6561ZM21.7799 18.1121C16.7559 18.1121 12.7559 14.0481 12.7559 9.0561C12.7559 4.0641 16.7879 0.000101089 21.7799 0.000101089C26.7719 0.000101089 30.8359 4.0641 30.8359 9.0561C30.8359 14.0481 26.7719 18.1121 21.7799 18.1121ZM21.7799 2.8161C18.1959 2.8161 15.7959 5.7601 15.7959 9.0561C15.7959 12.3841 18.1959 15.2961 21.7799 15.2961C25.3639 15.2961 27.7959 12.3841 27.7959 9.0561C27.7959 5.7601 25.3639 2.8161 21.7799 2.8161ZM29.2999 21.8881V24.7041H14.2599V21.8881H29.2999ZM47.5321 0.3841V3.2001H38.4121V14.1761H46.0281V16.9921H38.4121V24.7041H35.3721V0.3841H47.5321ZM50.2929 0.3841H65.3649V3.2001H59.3489V24.7041H56.3089V3.2001H50.2929V0.3841ZM67.5616 17.7281H70.6016C70.6016 20.2561 72.3296 22.2721 75.4016 22.2721C78.4736 22.2721 80.2016 20.4801 80.2016 18.4961C80.1696 16.2241 79.2416 15.3921 74.6976 13.3441C69.8016 11.1361 67.9136 9.1201 67.9136 6.1761C67.9136 4.5121 68.5536 0.000101089 75.2416 0.0321007C80.9696 0.0321007 82.3456 4.5121 82.3456 6.5281H79.3056C79.3056 5.1841 78.4096 2.8161 75.1136 2.8161C71.8176 2.8161 70.9536 4.6401 70.9536 5.9841C70.9536 7.5201 71.4976 8.6081 76.0416 10.5921C80.8416 12.6721 83.2416 14.5281 83.2416 18.4641C83.2416 20.5761 81.9936 25.0881 75.6256 25.0881C67.4336 25.0881 67.5616 17.7281 67.5616 17.7281ZM103.598 8.5441C103.598 13.6001 100.174 16.7361 95.2144 16.7361H90.3184V24.7041H87.2784V0.3841H95.2144C100.174 0.3841 103.598 3.4881 103.598 8.5441ZM90.3184 13.9201H95.2144C96.8144 13.9201 100.526 13.1841 100.526 8.5441C100.526 3.9361 96.8144 3.2001 95.2144 3.2001H90.3184V13.9201ZM124.133 8.3841V24.7041H121.093V17.0241H110.469V24.7041H107.429V8.3841C107.429 3.7441 111.141 0.0321007 115.781 0.0321007C120.421 0.0321007 124.133 3.7441 124.133 8.3841ZM110.469 8.3841V14.2081H121.093V8.3841C121.093 5.4401 118.725 2.8481 115.781 2.8481C112.869 2.8481 110.469 5.4401 110.469 8.3841ZM147.1 19.6801V23.3921C145.276 24.4801 143.068 25.0881 140.604 25.0881C133.18 25.0881 128.284 19.4881 128.284 12.5761C128.284 5.6641 133.18 0.0321007 140.604 0.0321007C143.068 0.0321007 145.276 0.6401 147.1 1.7281V5.4401C145.5 3.8401 143.292 2.8481 140.604 2.8481C134.972 2.8481 131.356 7.2961 131.356 12.5761C131.356 17.8241 134.972 22.2721 140.604 22.2721C143.292 22.2721 145.5 21.2801 147.1 19.6801ZM163.876 0.3841V3.2001H154.756V14.1761H162.34V16.9921H154.756V21.8881H163.876V24.7041H151.716V0.3841H163.876Z" fill="#EEEEEE"/>
</svg>
